<svg width="156" height="26" viewBox="0 0 156 26" fill="none" xmlns="http://www.w3.org/2000/svg">
<path fill-rule="evenodd" clip-rule="evenodd" d="M25.4185 10.1575L25.4185 10.1576C25.5524 10.7783 25.6417 11.4212 25.664 12.1084C25.7086 13.1281 25.6417 14.17 25.4632 15.1676C25.4409 15.1898 25.4408 15.212 25.4408 15.2341V15.2785C25.4408 15.3006 25.4353 15.3228 25.4297 15.345C25.4241 15.3671 25.4185 15.3893 25.4185 15.4115C25.4185 15.4207 25.4147 15.4336 25.4102 15.4489C25.4039 15.4704 25.3962 15.4963 25.3962 15.5223V15.5667C25.1954 16.3869 24.95 17.2071 24.5929 17.983C24.4144 18.3599 24.2136 18.7589 23.9905 19.1358C23.9905 19.1469 23.9849 19.1524 23.9793 19.1579C23.9737 19.1635 23.9682 19.169 23.9682 19.1801C23.9682 19.2023 23.9682 19.2244 23.9458 19.2466C23.2764 20.3772 22.4731 21.3748 21.4913 22.2615C21.469 22.2615 21.4467 22.2837 21.4244 22.3059L21.4021 22.328C21.3798 22.328 21.3575 22.3502 21.3352 22.3723L21.3351 22.3724C21.2905 22.3945 21.2682 22.4167 21.2459 22.4389C20.5765 23.0152 19.8401 23.5251 19.0592 23.9463C18.0327 24.5005 16.9617 24.9217 15.846 25.1877C14.8642 25.4316 13.8378 25.5424 12.8113 25.5424H12.4097C11.4948 25.5203 10.58 25.3873 9.68743 25.1656H9.6428C9.63356 25.1656 9.62049 25.1618 9.60518 25.1573C9.58352 25.151 9.55738 25.1434 9.53124 25.1434C9.53124 25.1212 9.50892 25.1212 9.48661 25.1212C8.21473 24.7665 7.0098 24.2345 5.89411 23.5251C5.58172 23.3256 5.29165 23.1261 5.00157 22.9044L1.56527 25.0326L9.82131 16.2095C10.6469 15.3228 10.2899 13.8819 9.1519 13.4828C7.79077 13.0173 7.61226 11.1773 8.86183 10.4679L17.765 5.30268C17.2294 4.97016 16.6716 4.68197 16.0914 4.46028C13.8378 3.59572 11.4056 3.66222 9.21885 4.61546C7.03211 5.59087 5.35859 7.34218 4.48836 9.55902C3.68507 11.5985 3.68507 13.8154 4.42142 15.8105C4.68918 16.5642 4.35447 17.4066 3.64044 17.8057L3.21648 18.0495C2.30162 18.5372 1.14131 18.116 0.784294 17.1406C-0.28676 14.2587 -0.264446 11.0886 0.873549 8.18458C1.49833 6.56628 2.41319 5.12534 3.61812 3.90607C4.75612 2.70898 6.11725 1.77791 7.65689 1.09069C9.17422 0.425633 10.7808 0.0709389 12.4543 0.00443368C14.1725 -0.0399031 15.8683 0.248286 17.4749 0.869002C18.5459 1.26803 19.5501 1.82224 20.4649 2.4873C21.0228 2.88633 21.7368 2.975 22.3169 2.64247L25.597 0.735991L16.3369 9.27083C15.3997 10.1132 15.7121 11.6428 16.917 12.064L17.1625 12.1527C18.5013 12.6183 18.6798 14.4139 17.4749 15.1455L8.63869 20.6211C8.77256 20.7097 8.92875 20.7762 9.08494 20.8427L9.08496 20.8427C9.39735 20.9979 9.70974 21.1088 10.0221 21.2196C10.0444 21.2418 10.0444 21.2418 10.0668 21.2418H10.0891C11.6957 21.7516 13.3692 21.8181 14.9534 21.4413C14.9758 21.4191 14.9981 21.4191 15.0204 21.4191C16.5823 21.0201 18.0327 20.222 19.2377 19.0914L19.26 19.0693C19.26 19.0582 19.2656 19.0526 19.2711 19.0471C19.2767 19.0416 19.2823 19.036 19.2823 19.0249C19.5277 18.7811 19.7509 18.5372 19.9517 18.2712C21.0674 16.8524 21.7145 15.1455 21.826 13.372V13.3498V13.239V13.1946V13.1281V13.0395V12.9951C21.8484 11.8202 21.6475 10.6453 21.2236 9.53685C20.9112 8.78312 21.2236 7.91856 21.9376 7.49736L23.9458 6.32243C24.4367 7.16483 24.8384 8.07373 25.1285 9.02698C25.24 9.40381 25.3293 9.78064 25.4185 10.1575ZM57.9741 6.30022H54.5378V21.0866H57.9741V6.30022ZM29.6135 6.30026H33.4515L35.7721 14.0592C35.8209 14.2048 35.8631 14.3636 35.9059 14.5248L35.9059 14.5249C35.9413 14.6583 35.9771 14.7933 36.0175 14.9238C36.0583 15.1127 36.1073 15.2853 36.1546 15.4514L36.1546 15.4514L36.1546 15.4515L36.1546 15.4516L36.1546 15.4517L36.1547 15.4518L36.1547 15.4519L36.1547 15.452L36.1547 15.452L36.1548 15.4521L36.1548 15.4522L36.1548 15.4524C36.1851 15.5587 36.2146 15.6625 36.2407 15.7662C36.2781 15.9395 36.3224 16.1059 36.3659 16.2692C36.4003 16.3984 36.4342 16.5257 36.4638 16.6529H36.5084C36.5977 16.3647 36.6646 16.0765 36.7316 15.7662C36.7448 15.7137 36.758 15.6603 36.7714 15.6063C36.8258 15.3864 36.8831 15.1551 36.9547 14.9238C37.0216 14.6134 37.1109 14.3252 37.2002 14.0592L39.5208 6.30026H43.2471L38.3605 21.0866H34.5448L29.6135 6.30026ZM48.017 21.1504C47.1467 21.1504 46.3658 21.0174 45.674 20.7292C44.9823 20.441 44.3798 20.0642 43.8666 19.5543C43.3757 19.0444 42.9741 18.468 42.7063 17.7808C42.4386 17.0936 42.3047 16.362 42.3047 15.564C42.3047 14.7659 42.4386 14.0122 42.7063 13.3471C42.9741 12.6821 43.3534 12.0614 43.8666 11.5737C44.3575 11.0638 44.96 10.6869 45.674 10.3987C46.3658 10.1105 47.1467 9.97753 48.017 9.97753C48.8872 9.97753 49.6682 10.1105 50.3599 10.3987C51.0516 10.6869 51.6541 11.0638 52.145 11.5737C52.6359 12.0835 53.0152 12.6599 53.283 13.3471C53.5507 14.0343 53.6846 14.7659 53.6846 15.564C53.6846 16.362 53.5507 17.1158 53.283 17.7808C53.0152 18.468 52.6359 19.0666 52.145 19.5543C51.6541 20.0642 51.0516 20.441 50.3599 20.7292C49.6682 21.0174 48.8872 21.1504 48.017 21.1504ZM47.9947 18.7562C48.7533 18.7562 49.3112 18.468 49.6905 17.8695C50.0698 17.2931 50.2706 16.5172 50.2706 15.5418C50.2706 14.5664 50.0698 13.7905 49.6905 13.2141C49.3112 12.6156 48.7533 12.3274 47.9947 12.3274C47.236 12.3274 46.6782 12.6156 46.2988 13.2141C45.9195 13.8127 45.741 14.5886 45.741 15.5418C45.741 16.495 45.9195 17.2931 46.2988 17.8695C46.6782 18.468 47.2583 18.7562 47.9947 18.7562ZM63.8427 21.2196C63.3518 21.2196 62.8832 21.1753 62.4815 21.0866C62.0799 20.9979 61.7229 20.8427 61.4105 20.6211C61.0981 20.3994 60.8749 20.1112 60.6964 19.7121C60.5402 19.3353 60.451 18.8697 60.451 18.2934V12.6183H59.0452V10.5123H60.451V7.16483H63.7534V10.5123H65.6947V12.6183H63.7534V17.584C63.7534 18.0052 63.865 18.2712 64.0881 18.4042C64.3112 18.5372 64.6013 18.6037 64.9583 18.6037H65.4046H65.717V21.0644C65.5608 21.1088 65.3377 21.1531 65.0253 21.1753C64.6906 21.1974 64.3112 21.2196 63.8427 21.2196ZM68.7963 21.1531C69.2425 21.2861 69.7334 21.3526 70.269 21.3526C71.0723 21.3526 71.7193 21.2418 72.2326 20.9979C72.7458 20.7319 73.1474 20.3772 73.4598 19.9339H73.5044C73.5358 20.121 73.5782 20.2971 73.6162 20.4546L73.6162 20.4549L73.6163 20.455C73.6323 20.5213 73.6474 20.5842 73.6606 20.6432C73.7053 20.8428 73.7722 20.9979 73.8615 21.1088H77.1416V20.9536C76.9854 20.8649 76.8738 20.6876 76.8292 20.4437C76.7845 20.1999 76.7622 19.8674 76.7622 19.4462V14.1036C76.7622 13.4385 76.6507 12.8621 76.4275 12.3523C76.2044 11.8424 75.8474 11.4212 75.4011 11.0887C74.9995 10.8005 74.5309 10.5788 73.9507 10.4458C73.4152 10.2906 72.7235 10.2241 71.9202 10.2241C71.1169 10.2241 70.4252 10.3128 69.8227 10.5123C69.2202 10.6896 68.7293 10.9557 68.3277 11.2882C67.926 11.6207 67.6136 11.9976 67.4128 12.4409C67.212 12.8621 67.1004 13.3498 67.0781 13.8375H70.202C70.2466 13.3942 70.4252 13.0617 70.6929 12.8178C70.9607 12.5739 71.3846 12.4631 71.9202 12.4631C72.4334 12.4631 72.8127 12.5739 73.0359 12.7735C73.259 12.973 73.3706 13.239 73.3706 13.5937C73.3706 13.9706 73.1697 14.2144 72.7681 14.3696C72.3664 14.5248 71.6747 14.6578 70.6706 14.7908C70.1351 14.8573 69.5995 14.9681 69.1087 15.1011C68.6178 15.2563 68.1938 15.4337 67.8145 15.6997C67.4351 15.9657 67.1227 16.2761 66.9219 16.6751C66.7211 17.0741 66.6095 17.5618 66.6095 18.1382C66.6095 18.6481 66.6988 19.1136 66.8773 19.5127C67.0558 19.9117 67.3236 20.2664 67.636 20.5324C67.9483 20.7984 68.35 21.0201 68.7963 21.1531ZM72.902 18.6924C72.5226 19.025 72.0094 19.2023 71.3623 19.2023C70.9384 19.2023 70.6037 19.1136 70.3359 18.9806C70.0458 18.8033 69.9119 18.4929 69.9119 18.0717C69.9119 17.6727 70.0681 17.3623 70.3582 17.1628C70.6483 16.9633 71.1169 16.7859 71.764 16.6308C72.0987 16.5421 72.4334 16.4534 72.7235 16.3647C72.8003 16.3354 72.8755 16.3076 72.9488 16.2805L72.9489 16.2805C73.1523 16.2054 73.3404 16.1359 73.5044 16.0544V17.318C73.5044 17.8944 73.3036 18.3377 72.902 18.6924ZM81.8274 6.30022H92.8949V9.38163H85.5091V12.3744H91.69V15.3228H85.5091V21.0644H81.8274V6.30022ZM97.5362 6.30022H94.1445V9.02694H97.5362V6.30022ZM97.5362 10.5122H94.1445V21.1087H97.5362V10.5122ZM99.1651 10.5122H102.445V11.9531H102.512C102.914 11.3767 103.382 10.9334 103.896 10.6452C104.409 10.357 105.056 10.2018 105.792 10.2018C106.372 10.2018 106.886 10.3127 107.354 10.5122C107.8 10.7117 108.202 10.9777 108.515 11.3324C108.827 11.6871 109.072 12.1083 109.251 12.596C109.407 13.0837 109.496 13.6379 109.496 14.2143V21.1087H106.105V14.9015C106.105 14.3473 105.971 13.8818 105.681 13.5271C105.413 13.1724 104.989 13.0172 104.431 13.0172C103.851 13.0172 103.405 13.2167 103.07 13.6379C102.735 14.0591 102.557 14.5912 102.557 15.2562V21.1087H99.1651V10.5122ZM112.709 21.1531C113.156 21.2861 113.647 21.3526 114.182 21.3526C114.985 21.3526 115.61 21.264 116.123 20.9979C116.637 20.7319 117.038 20.3772 117.351 19.9339H117.395C117.427 20.1211 117.469 20.2974 117.507 20.4549L117.507 20.4557L117.508 20.4568C117.523 20.5224 117.538 20.5847 117.552 20.6432C117.596 20.8428 117.663 20.9979 117.752 21.1088H121.032V20.9536C120.876 20.8649 120.765 20.6876 120.72 20.4437C120.675 20.1999 120.653 19.8674 120.653 19.4462V14.1036C120.653 13.4385 120.542 12.8621 120.318 12.3523C120.095 11.8424 119.738 11.4212 119.292 11.0887C118.913 10.8005 118.399 10.601 117.864 10.4458C117.328 10.2906 116.637 10.2241 115.833 10.2241C115.03 10.2241 114.338 10.3128 113.736 10.5123C113.133 10.6896 112.643 10.9557 112.241 11.2882C111.839 11.6207 111.527 11.9976 111.326 12.4409C111.125 12.8621 111.014 13.3498 110.991 13.8375H114.115C114.16 13.3942 114.338 13.0617 114.606 12.8178C114.874 12.5739 115.298 12.4631 115.833 12.4631C116.347 12.4631 116.726 12.5739 116.949 12.7735C117.172 12.973 117.284 13.239 117.284 13.5937C117.284 13.9706 117.083 14.2144 116.681 14.3696C116.28 14.5248 115.588 14.6578 114.584 14.7908C114.048 14.8573 113.513 14.9681 113.022 15.1011C112.531 15.2563 112.107 15.4337 111.728 15.6997C111.348 15.9657 111.036 16.2761 110.835 16.6751C110.634 17.0741 110.523 17.5618 110.523 18.1382C110.523 18.6481 110.612 19.1136 110.79 19.5127C110.969 19.9117 111.237 20.2664 111.549 20.5324C111.862 20.7984 112.263 21.0201 112.709 21.1531ZM116.793 18.6924C116.414 19.025 115.9 19.2023 115.253 19.2023C114.852 19.2023 114.495 19.1136 114.227 18.9363C113.937 18.7589 113.803 18.4486 113.803 18.0274C113.803 17.6283 113.937 17.3402 114.249 17.1628C114.539 16.9633 115.008 16.7859 115.655 16.6308C115.751 16.6054 115.846 16.5818 115.941 16.5585C116.177 16.5004 116.407 16.4439 116.614 16.3647C116.691 16.3354 116.766 16.3076 116.84 16.2805L116.84 16.2805L116.84 16.2805C117.043 16.2054 117.231 16.1359 117.395 16.0544V17.318C117.395 17.8944 117.194 18.3377 116.793 18.6924ZM122.282 10.5122H125.562V11.9531H125.629C126.031 11.3767 126.499 10.9334 127.012 10.6452C127.526 10.357 128.173 10.2018 128.909 10.2018C129.489 10.2018 130.002 10.3127 130.471 10.5122C130.917 10.7117 131.319 10.9777 131.631 11.3324C131.944 11.6871 132.189 12.1083 132.368 12.596C132.524 13.0837 132.613 13.6379 132.613 14.2143V21.1087H129.221V14.9015C129.221 14.3473 129.088 13.8818 128.798 13.5271C128.53 13.1724 128.106 13.0172 127.548 13.0172C126.968 13.0172 126.522 13.2167 126.187 13.6379C125.852 14.0591 125.674 14.5912 125.674 15.2562V21.1087H122.282V10.5122ZM137.009 20.9978C137.701 21.286 138.459 21.419 139.33 21.419C140.088 21.419 140.78 21.3082 141.405 21.153C142.03 20.9313 142.543 20.621 142.989 20.2219C143.435 19.8451 143.77 19.3795 144.016 18.8475C144.261 18.3155 144.395 17.7391 144.417 17.1405H141.159C141.003 18.3598 140.401 18.9583 139.307 18.9583C138.571 18.9583 138.013 18.6923 137.656 18.1381C137.299 17.5839 137.121 16.8302 137.121 15.8769C137.121 14.9237 137.299 14.1478 137.656 13.5936C138.013 13.0394 138.571 12.7512 139.307 12.7512C139.798 12.7512 140.178 12.8842 140.468 13.1724C140.758 13.4606 140.959 13.8374 141.07 14.3252H144.328C144.261 13.7266 144.082 13.1724 143.815 12.6847C143.547 12.1748 143.19 11.7536 142.766 11.3989C142.32 11.0442 141.806 10.756 141.226 10.5565C140.646 10.357 139.977 10.2462 139.263 10.2462C138.415 10.2462 137.656 10.3792 136.964 10.6674C136.273 10.9556 135.693 11.3324 135.202 11.8423C134.733 12.33 134.354 12.9285 134.086 13.6158C133.818 14.2808 133.684 15.0345 133.684 15.8326C133.684 16.6307 133.818 17.3622 134.086 18.0494C134.354 18.7367 134.733 19.313 135.224 19.8229C135.715 20.3328 136.317 20.7097 137.009 20.9978ZM150.687 21.3969C149.817 21.3969 149.014 21.2639 148.322 20.9757C147.608 20.6875 147.028 20.3106 146.537 19.8007C146.046 19.2909 145.667 18.6923 145.421 18.0051C145.153 17.3179 145.02 16.5642 145.02 15.7661C145.02 14.9902 145.153 14.2365 145.421 13.5714C145.689 12.8842 146.068 12.2857 146.537 11.798C147.028 11.2881 147.608 10.9112 148.255 10.623C148.924 10.3348 149.661 10.2018 150.486 10.2018C151.245 10.2018 151.937 10.3127 152.539 10.5565C153.142 10.8004 153.677 11.1107 154.124 11.5319C154.771 12.1083 155.239 12.8399 155.552 13.7266C155.864 14.6133 156.02 15.5887 155.998 16.675H148.344C148.456 17.3844 148.701 17.9608 149.103 18.3598C149.482 18.781 150.04 18.9805 150.754 18.9805C151.2 18.9805 151.558 18.8918 151.848 18.6923C152.138 18.515 152.361 18.249 152.517 17.9164H155.819C155.708 18.4041 155.507 18.8475 155.195 19.2909C154.882 19.7342 154.503 20.1111 154.034 20.4215C153.588 20.7318 153.097 20.9757 152.539 21.153C151.981 21.3304 151.357 21.3969 150.687 21.3969ZM152.562 14.6577C152.495 14.0148 152.272 13.5271 151.915 13.1502C151.557 12.7734 151.089 12.596 150.531 12.596C149.884 12.596 149.371 12.7734 149.036 13.1502C148.679 13.5271 148.456 14.0148 148.344 14.6577H152.562Z" fill="#CDCDCD"/>
</svg>
